<svg xmlns="http://www.w3.org/2000/svg" viewBox="0 0 300 420" role="img" aria-label="Dustbun">
<defs>
<linearGradient id="frame" x1="0" y1="0" x2="1" y2="1"><stop offset="0" stop-color="#f8fafc"/><stop offset="1" stop-color="#e2e8f0"/></linearGradient>
<linearGradient id="art" x1="0" y1="0" x2="0" y2="1"><stop offset="0" stop-color="#e7e5e4"/><stop offset="1" stop-color="#78716c"/></linearGradient>
<clipPath id="window"><rect x="18" y="54" width="264" height="212" rx="12"/></clipPath>
</defs>
<rect x="3" y="3" width="294" height="414" rx="20" fill="url(#frame)" stroke="#cbd5e1" stroke-width="6"/>
<text x="22" y="40" font-family="'Trebuchet MS', Verdana, system-ui, sans-serif" font-size="22" font-weight="700" fill="#0f172a">Dustbun</text>
<text x="278" y="40" font-family="'Trebuchet MS', Verdana, system-ui, sans-serif" font-size="17" font-weight="700" fill="#b91c1c" text-anchor="end">HP 60</text>
<g clip-path="url(#window)">
<rect x="18" y="54" width="264" height="212" fill="url(#art)"/>

<ellipse cx="150" cy="246" rx="96" ry="16" fill="#000" opacity="0.18"/>
<g transform="translate(150 166) scale(1.18)"><circle cx="-30.800000000000004" cy="-44.279999999999994" r="15" fill="#797572"/><circle cx="30.800000000000004" cy="-44.279999999999994" r="15" fill="#797572"/><ellipse cx="-25.2" cy="51" rx="16" ry="9" fill="#797572"/><ellipse cx="25.2" cy="51" rx="16" ry="9" fill="#797572"/><ellipse cx="0" cy="0" rx="56" ry="54" fill="#a8a29e"/><ellipse cx="0" cy="18.360000000000003" rx="33.6" ry="25.919999999999998" fill="#f5f5f4"/><path d="M -27.040000000000003 -9.719999999999999 q 8 8 16 0" stroke="#1f2937" stroke-width="4" fill="none" stroke-linecap="round"/><path d="M 11.040000000000003 -9.719999999999999 q 8 8 16 0" stroke="#1f2937" stroke-width="4" fill="none" stroke-linecap="round"/><circle cx="-31.040000000000003" cy="4.280000000000001" r="6" fill="#fb7185" opacity="0.55"/><circle cx="31.040000000000003" cy="4.280000000000001" r="6" fill="#fb7185" opacity="0.55"/><path d="M -7 3.280000000000001 q 7 8 14 0" stroke="#1f2937" stroke-width="3.5" fill="none" stroke-linecap="round"/></g>

</g>
<rect x="18" y="54" width="264" height="212" rx="12" fill="none" stroke="#cbd5e1" stroke-width="3"/>
<rect x="22" y="280" width="76" height="26" rx="13" fill="#78716c"/>
<text x="35" y="298" font-family="'Trebuchet MS', Verdana, system-ui, sans-serif" font-size="14" font-weight="700" fill="#fff">Stone</text>
<text x="22" y="330" font-family="'Trebuchet MS', Verdana, system-ui, sans-serif" font-size="14" font-style="italic" fill="#334155">Rolls downhill for fun, then walks all</text>
<text x="22" y="349" font-family="'Trebuchet MS', Verdana, system-ui, sans-serif" font-size="14" font-style="italic" fill="#334155">the way back.</text>
<text x="22" y="400" font-family="'Trebuchet MS', Verdana, system-ui, sans-serif" font-size="13" font-weight="700" fill="#64748b">007/018</text>
<circle cx="272" cy="395" r="6" fill="#64748b"/>
</svg>
