<svg xmlns="http://www.w3.org/2000/svg" viewBox="0 0 240 340" role="img" aria-label="Tide Pack">
<defs>
<linearGradient id="foil" x1="0" y1="0" x2="1" y2="1"><stop offset="0" stop-color="#f0abfc"/><stop offset="0.55" stop-color="#7c3aed"/><stop offset="1" stop-color="#1e1b4b"/></linearGradient>
<linearGradient id="shine" x1="0" y1="0" x2="1" y2="0"><stop offset="0" stop-color="#fff" stop-opacity="0"/><stop offset="0.5" stop-color="#fff" stop-opacity="0.35"/><stop offset="1" stop-color="#fff" stop-opacity="0"/></linearGradient>
</defs>
<polygon points="0,14 10,5 20,14 30,5 40,14 50,5 60,14 70,5 80,14 90,5 100,14 110,5 120,14 130,5 140,14 150,5 160,14 170,5 180,14 190,5 200,14 210,5 220,14 230,5 240,14 240,14 240,326 240,326 230,335 220,326 210,335 200,326 190,335 180,326 170,335 160,326 150,335 140,326 130,335 120,326 110,335 100,326 90,335 80,326 70,335 60,326 50,335 40,326 30,335 20,326 10,335 0,326" fill="url(#foil)"/>
<rect x="0" y="26" width="240" height="10" fill="#000" opacity="0.12"/>
<rect x="0" y="304" width="240" height="10" fill="#000" opacity="0.12"/>
<rect x="40" y="14" width="46" height="312" fill="url(#shine)" transform="skewX(-12)"/>
<circle cx="120" cy="176" r="78" fill="#fff" opacity="0.22"/>
<g transform="translate(120 182) scale(1.05)"><path d="M 36 18 q 46 -4 36 -46 q -4 26 -28 28 z" fill="#4aa7b3"/><path d="M -40 -10 q -34 -22 -30 14 q 14 -8 30 10 z" fill="#4aa7b3"/><path d="M 40 -10 q 34 -22 30 14 q -14 -8 -30 10 z" fill="#4aa7b3"/><ellipse cx="-20.7" cy="57" rx="16" ry="9" fill="#4aa7b3"/><ellipse cx="20.7" cy="57" rx="16" ry="9" fill="#4aa7b3"/><ellipse cx="0" cy="0" rx="46" ry="60" fill="#67e8f9"/><ellipse cx="0" cy="20.400000000000002" rx="27.599999999999998" ry="28.799999999999997" fill="#ecfeff"/><polygon points="0.0,11.0 3.4,19.3 12.4,20.0 5.6,25.8 7.6,34.5 0.0,29.9 -7.6,34.5 -5.6,25.8 -12.4,20.0 -3.4,19.3" fill="#fbbf24"/><circle cx="-15.64" cy="-10.799999999999999" r="11" fill="#fff"/><circle cx="-14.64" cy="-9.799999999999999" r="7" fill="#1f2937"/><circle cx="-11.64" cy="-13.799999999999999" r="2.5" fill="#fff"/><circle cx="15.64" cy="-10.799999999999999" r="11" fill="#fff"/><circle cx="16.64" cy="-9.799999999999999" r="7" fill="#1f2937"/><circle cx="19.64" cy="-13.799999999999999" r="2.5" fill="#fff"/><circle cx="-27.64" cy="3.200000000000001" r="6" fill="#fb7185" opacity="0.55"/><circle cx="27.64" cy="3.200000000000001" r="6" fill="#fb7185" opacity="0.55"/><path d="M -7 2.200000000000001 q 7 8 14 0" stroke="#1f2937" stroke-width="3.5" fill="none" stroke-linecap="round"/></g>
<text x="120" y="70" font-family="'Trebuchet MS', Verdana, system-ui, sans-serif" font-size="15" font-weight="700" fill="#fff" text-anchor="middle" letter-spacing="2">NEON DEPTHS</text>
<text x="120" y="98" font-family="'Trebuchet MS', Verdana, system-ui, sans-serif" font-size="25" font-weight="700" fill="#fff" text-anchor="middle">Tide Pack</text>
<rect x="76" y="270" width="88" height="26" rx="13" fill="#000" opacity="0.28"/>
<text x="120" y="288" font-family="'Trebuchet MS', Verdana, system-ui, sans-serif" font-size="14" font-weight="700" fill="#fff" text-anchor="middle">5 CARDS</text>
</svg>
