<svg xmlns="http://www.w3.org/2000/svg" viewBox="0 0 240 340" role="img" aria-label="Sunrise Pack">
<defs>
<linearGradient id="foil" x1="0" y1="0" x2="1" y2="1"><stop offset="0" stop-color="#bef264"/><stop offset="0.55" stop-color="#22c55e"/><stop offset="1" stop-color="#0e7490"/></linearGradient>
<linearGradient id="shine" x1="0" y1="0" x2="1" y2="0"><stop offset="0" stop-color="#fff" stop-opacity="0"/><stop offset="0.5" stop-color="#fff" stop-opacity="0.35"/><stop offset="1" stop-color="#fff" stop-opacity="0"/></linearGradient>
</defs>
<polygon points="0,14 10,5 20,14 30,5 40,14 50,5 60,14 70,5 80,14 90,5 100,14 110,5 120,14 130,5 140,14 150,5 160,14 170,5 180,14 190,5 200,14 210,5 220,14 230,5 240,14 240,14 240,326 240,326 230,335 220,326 210,335 200,326 190,335 180,326 170,335 160,326 150,335 140,326 130,335 120,326 110,335 100,326 90,335 80,326 70,335 60,326 50,335 40,326 30,335 20,326 10,335 0,326" fill="url(#foil)"/>
<rect x="0" y="26" width="240" height="10" fill="#000" opacity="0.12"/>
<rect x="0" y="304" width="240" height="10" fill="#000" opacity="0.12"/>
<rect x="40" y="14" width="46" height="312" fill="url(#shine)" transform="skewX(-12)"/>
<circle cx="120" cy="176" r="78" fill="#fff" opacity="0.22"/>
<g transform="translate(120 182) scale(1.05)"><path d="M 46 18 q 46 -4 36 -46 q -4 26 -28 28 z" fill="#b4930f"/><path d="M -20.800000000000004 -30.279999999999994 q -4 -30 -26 -32 q 8 14 6 34 z" fill="#fef3c7" stroke="#b4930f" stroke-width="3"/><path d="M 20.800000000000004 -30.279999999999994 q 4 -30 26 -32 q -8 14 -6 34 z" fill="#fef3c7" stroke="#b4930f" stroke-width="3"/><ellipse cx="-25.2" cy="51" rx="16" ry="9" fill="#b4930f"/><ellipse cx="25.2" cy="51" rx="16" ry="9" fill="#b4930f"/><ellipse cx="0" cy="0" rx="56" ry="54" fill="#facc15"/><ellipse cx="0" cy="18.360000000000003" rx="33.6" ry="25.919999999999998" fill="#fef9c3"/><polygon points="0.0,8.6 3.4,16.9 12.4,17.6 5.6,23.4 7.6,32.1 0.0,27.5 -7.6,32.1 -5.6,23.4 -12.4,17.6 -3.4,16.9" fill="#fbbf24"/><circle cx="-19.040000000000003" cy="-9.719999999999999" r="11" fill="#fff"/><circle cx="-18.040000000000003" cy="-8.719999999999999" r="7" fill="#1f2937"/><circle cx="-15.040000000000003" cy="-12.719999999999999" r="2.5" fill="#fff"/><circle cx="19.040000000000003" cy="-9.719999999999999" r="11" fill="#fff"/><circle cx="20.040000000000003" cy="-8.719999999999999" r="7" fill="#1f2937"/><circle cx="23.040000000000003" cy="-12.719999999999999" r="2.5" fill="#fff"/><circle cx="-31.040000000000003" cy="4.280000000000001" r="6" fill="#fb7185" opacity="0.55"/><circle cx="31.040000000000003" cy="4.280000000000001" r="6" fill="#fb7185" opacity="0.55"/><path d="M -7 3.280000000000001 q 7 8 14 0" stroke="#1f2937" stroke-width="3.5" fill="none" stroke-linecap="round"/></g>
<text x="120" y="70" font-family="'Trebuchet MS', Verdana, system-ui, sans-serif" font-size="15" font-weight="700" fill="#fff" text-anchor="middle" letter-spacing="2">PIXEL MEADOW</text>
<text x="120" y="98" font-family="'Trebuchet MS', Verdana, system-ui, sans-serif" font-size="25" font-weight="700" fill="#fff" text-anchor="middle">Sunrise Pack</text>
<rect x="76" y="270" width="88" height="26" rx="13" fill="#000" opacity="0.28"/>
<text x="120" y="288" font-family="'Trebuchet MS', Verdana, system-ui, sans-serif" font-size="14" font-weight="700" fill="#fff" text-anchor="middle">5 CARDS</text>
</svg>
